<?xml version="1.0" encoding="UTF-8"?>
<svg id="Layer_1" xmlns="http://www.w3.org/2000/svg" version="1.1" viewBox="0 0 1080 968.46">
  <!-- Generator: Adobe Illustrator 29.7.1, SVG Export Plug-In . SVG Version: 2.1.1 Build 8)  -->
  <defs>
    <style>
      .st0 {
        fill: #093047;
      }

      .st1 {
        fill: #236ea3;
      }
    </style>
  </defs>
  <path class="st1" d="M411.5,629.65c.28,1.78,2.84,1.8,3.15.02,4.83-28,19.5-94.95,67.25-144.07,50.82-52.28,110.34-67.64,138.82-72.45,1.78-.3,1.78-2.85,0-3.15-27.99-4.66-84.76-19.23-134.63-68.1-48.08-47.11-64.54-116.6-70.42-146.46-.52-2.62-4.29-2.55-4.71.09-4.88,30.38-23.99,102.7-75.23,151.13-48.63,45.96-100.01,59.78-128.24,63.67-1.82.25-1.84,2.87-.03,3.16,28.32,4.54,81.79,18.33,129.61,63.17,54.6,51.2,69.89,124.28,74.45,153Z"/>
  <path class="st1" d="M177.66,337.77c.19,1.21,1.92,1.22,2.13.01,3.27-18.95,13.19-64.24,45.5-97.48,34.38-35.37,74.66-45.77,93.93-49.02,1.2-.2,1.2-1.93,0-2.13-18.94-3.15-57.35-13.01-91.09-46.08-32.53-31.88-43.67-78.89-47.65-99.09-.35-1.78-2.9-1.73-3.19.06-3.3,20.56-16.23,69.49-50.9,102.26-32.9,31.1-67.67,40.45-86.77,43.08-1.23.17-1.25,1.94-.02,2.14,19.16,3.07,55.34,12.4,87.7,42.74,36.94,34.64,47.29,84.09,50.37,103.52Z"/>
  <path class="st1" d="M178.29,673.66c.12.77,1.23.78,1.36,0,2.09-12.11,8.44-41.08,29.09-62.33,21.98-22.62,47.74-29.26,60.06-31.34.77-.13.77-1.23,0-1.36-12.11-2.01-36.67-8.32-58.24-29.46-20.8-20.38-27.92-50.44-30.47-63.36-.22-1.14-1.86-1.1-2.04.04-2.11,13.14-10.38,44.43-32.55,65.38-21.04,19.88-43.27,25.86-55.48,27.54-.79.11-.8,1.24-.01,1.37,12.25,1.97,35.38,7.93,56.07,27.33,23.62,22.15,30.24,53.77,32.21,66.19Z"/>
  <path class="st0" d="M1038.49,906.74l-157.25-279.4c-1.85-3.29-.09-7.42,3.55-8.41,44.08-11.98,75.81-31.89,95.21-59.71,20.44-29.34,30.66-69.81,30.66-121.43v-83.3c0-35.97-6.09-65.48-18.27-88.56-12.17-23.07-27.84-41.24-46.97-54.53-19.14-13.3-41.1-22.49-65.9-27.57-24.79-5.1-49.37-7.64-73.73-7.64h-314.29s-.05,0-.07,0c-2.92.04-5.04,2.85-4.48,5.72,11.69,60,37.62,111.13,74.06,145.31,50.86,47.69,109.17,63.62,139.38,71.58,18.31,4.83,21.4,7.16,21.4,12.61,0,6.86-4.94,8.69-21.02,12.14-24.09,5.18-79.11,10.34-138.29,60.06-68.86,57.86-78.84,141.65-78.84,165.4,0,52.85,1.38,263.21,1.18,260.49,0,3.17,2.54,5.74,5.68,5.74h123.01c3.14,0,5.68-2.54,5.68-5.68v-261.31c0-11.23,9.19-20.42,20.42-20.42h49.8c9,0,17.28,4.92,21.58,12.82l147.98,271.62c1,1.83,2.92,2.97,5,2.97h169.54c4.37,0,7.12-4.71,4.98-8.51Z"/>
</svg>