<?xml version="1.0" encoding="UTF-8"?>
<svg id="Layer_1" xmlns="http://www.w3.org/2000/svg" version="1.1" viewBox="0 0 1696.1 315.25">
  <!-- Generator: Adobe Illustrator 29.8.2, SVG Export Plug-In . SVG Version: 2.1.1 Build 3)  -->
  <defs>
    <style>
      .st0 {
        fill: #fafafa;
      }

      .st1 {
        fill: #16ad7a;
      }
    </style>
  </defs>
  <path class="st0" d="M415.71,178.9h-93.21c1.98,27.92,15.85,41.88,41.61,41.88,15.13,0,28.81-4.95,41.06-14.86l8.38,19.18c-6.12,5.23-13.69,9.37-22.69,12.43-9.01,3.06-18.19,4.59-27.56,4.59-21.07,0-37.69-6.03-49.84-18.1-12.16-12.06-18.24-28.73-18.24-49.98,0-13.51,2.66-25.49,7.97-35.93,5.31-10.44,12.79-18.55,22.42-24.32,9.63-5.76,20.58-8.64,32.82-8.64,17.83,0,31.83,5.77,42.01,17.29,10.17,11.53,15.26,27.47,15.26,47.82v8.64ZM333.99,134.99c-6.21,6.58-9.95,15.99-11.21,28.23h69.43c-.54-12.25-3.65-21.66-9.32-28.23-5.67-6.57-13.64-9.86-23.91-9.86s-18.78,3.29-24.99,9.86Z"/>
  <path class="st0" d="M534.72,118.38c8.55,8.83,12.83,22.25,12.83,40.25v81.59h-26.21v-21.88c-3.42,7.75-8.51,13.64-15.26,17.7-6.75,4.05-14.64,6.08-23.64,6.08s-16.57-1.76-23.77-5.27c-7.21-3.51-12.83-8.42-16.89-14.72-4.05-6.3-6.08-13.33-6.08-21.07,0-9.54,2.47-17.06,7.43-22.56,4.95-5.49,13.15-9.41,24.59-11.75,11.44-2.34,27.15-3.51,47.14-3.51h6.21v-7.83c0-10.09-2.12-17.38-6.35-21.88-4.23-4.5-11.12-6.75-20.67-6.75-14.95,0-29.9,4.59-44.85,13.78l-8.11-19.18c7.02-4.86,15.53-8.78,25.53-11.75,10-2.97,19.59-4.46,28.77-4.46,17.65,0,30.75,4.42,39.31,13.24ZM511.62,211.72c6.3-6.75,9.46-15.44,9.46-26.07v-7.03h-4.86c-14.05,0-24.86.63-32.42,1.89-7.57,1.26-12.97,3.38-16.21,6.35-3.24,2.97-4.86,7.25-4.86,12.83,0,6.31,2.3,11.57,6.89,15.8,4.59,4.23,10.49,6.35,17.7,6.35,9.9,0,18.01-3.38,24.31-10.13Z"/>
  <path class="st0" d="M701,49.76v190.47h-27.01v-22.69c-3.96,7.93-9.72,14.01-17.29,18.24-7.57,4.23-16.31,6.35-26.21,6.35-11.35,0-21.48-2.88-30.4-8.64-8.92-5.76-15.85-13.87-20.8-24.32-4.96-10.44-7.43-22.42-7.43-35.93s2.47-25.67,7.43-35.93c4.95-10.27,11.84-18.19,20.67-23.77,8.82-5.58,19-8.38,30.53-8.38,9.9,0,18.59,2.12,26.07,6.35,7.47,4.23,13.19,10.22,17.16,17.97V49.76h27.29ZM664.4,208.34c6.39-8.11,9.59-19.63,9.59-34.58s-3.2-26.48-9.59-34.58c-6.4-8.11-15.54-12.16-27.42-12.16s-21.12,4.01-27.69,12.02c-6.58,8.02-9.86,19.41-9.86,34.18s3.33,26.34,10,34.71c6.66,8.38,15.84,12.56,27.56,12.56s21.03-4.05,27.42-12.16Z"/>
  <path class="st0" d="M859.86,108.65l-78.62,180.2h-27.56l22.96-51.87-55.38-128.33h28.64l41.07,100.77,41.61-100.77h27.28Z"/>
  <path class="st0" d="M968.19,220.23l-1.35,20.8c-4.5.72-9.19,1.08-14.05,1.08-17.11,0-29.85-4.19-38.23-12.56-8.37-8.38-12.56-20.49-12.56-36.34v-63.76h-25.67v-21.07h25.67v-39.72h27.28v39.72h36.2v21.07h-36.2v62.68c0,19.28,8.92,28.91,26.75,28.91,4.14,0,8.19-.27,12.16-.81Z"/>
  <path class="st0" d="M1017.49,233.74c-9.82-5.58-17.38-13.55-22.69-23.91-5.32-10.35-7.97-22.38-7.97-36.07s2.65-25.98,7.97-36.34c5.31-10.35,12.87-18.32,22.69-23.91,9.81-5.58,21.21-8.38,34.18-8.38s24.36,2.79,34.18,8.38c9.81,5.59,17.38,13.55,22.7,23.91,5.31,10.36,7.97,22.47,7.97,36.34s-2.66,25.71-7.97,36.07c-5.32,10.36-12.88,18.33-22.7,23.91-9.82,5.59-21.21,8.38-34.18,8.38s-24.36-2.79-34.18-8.38ZM1079.36,208.61c6.39-7.92,9.59-19.54,9.59-34.85s-3.24-26.7-9.72-34.72c-6.49-8.01-15.67-12.02-27.56-12.02s-21.07,4.01-27.56,12.02c-6.49,8.02-9.73,19.59-9.73,34.72s3.2,26.93,9.59,34.85c6.39,7.93,15.62,11.89,27.69,11.89s21.3-3.96,27.69-11.89Z"/>
  <path class="st0" d="M1264.02,108.38v121.3c0,20.17-5.36,35.39-16.07,45.66-10.72,10.27-26.52,15.4-47.41,15.4-11.35,0-22.11-1.49-32.28-4.46-10.18-2.97-19.23-7.25-27.15-12.83l8.38-19.72c8.64,5.58,16.97,9.59,24.99,12.02,8.01,2.43,16.61,3.65,25.8,3.65,24.67,0,37.01-12.52,37.01-37.55v-20.8c-3.78,7.93-9.55,14.09-17.29,18.51-7.75,4.42-16.75,6.62-27.02,6.62-11.53,0-21.79-2.7-30.8-8.11-9.01-5.4-15.99-13.06-20.94-22.96-4.96-9.9-7.43-21.34-7.43-34.31s2.52-24.4,7.56-34.31c5.04-9.9,12.02-17.6,20.94-23.1,8.92-5.49,19.13-8.24,30.66-8.24,10.09,0,18.95,2.16,26.61,6.48,7.65,4.32,13.46,10.45,17.42,18.37v-21.61h27.02ZM1227,202.94c6.66-7.74,10-18.46,10-32.15s-3.29-24.18-9.86-32.01c-6.58-7.83-15.81-11.75-27.69-11.75s-21.21,3.87-27.96,11.62c-6.75,7.75-10.13,18.46-10.13,32.15s3.42,24.41,10.27,32.15c6.84,7.75,16.12,11.62,27.83,11.62s20.89-3.87,27.56-11.62Z"/>
  <path class="st0" d="M1314.4,233.74c-9.82-5.58-17.38-13.55-22.69-23.91-5.32-10.35-7.97-22.38-7.97-36.07s2.65-25.98,7.97-36.34c5.31-10.35,12.87-18.32,22.69-23.91,9.81-5.58,21.21-8.38,34.18-8.38s24.36,2.79,34.18,8.38c9.81,5.59,17.38,13.55,22.7,23.91,5.31,10.36,7.97,22.47,7.97,36.34s-2.66,25.71-7.97,36.07c-5.32,10.36-12.88,18.33-22.7,23.91-9.82,5.59-21.21,8.38-34.18,8.38s-24.36-2.79-34.18-8.38ZM1376.27,208.61c6.39-7.92,9.59-19.54,9.59-34.85s-3.24-26.7-9.72-34.72c-6.49-8.01-15.67-12.02-27.56-12.02s-21.07,4.01-27.56,12.02c-6.49,8.02-9.73,19.59-9.73,34.72s3.2,26.93,9.59,34.85c6.39,7.93,15.62,11.89,27.69,11.89s21.3-3.96,27.69-11.89Z"/>
  <path class="st0" d="M1463.39,208.07v32.15h-32.15v-32.15h32.15Z"/>
  <path class="st0" d="M1586.72,118.38c8.55,8.83,12.83,22.25,12.83,40.25v81.59h-26.21v-21.88c-3.42,7.75-8.51,13.64-15.26,17.7-6.75,4.05-14.64,6.08-23.64,6.08s-16.57-1.76-23.78-5.27c-7.2-3.51-12.83-8.42-16.89-14.72-4.05-6.3-6.08-13.33-6.08-21.07,0-9.54,2.47-17.06,7.43-22.56,4.95-5.49,13.15-9.41,24.58-11.75,11.44-2.34,27.15-3.51,47.14-3.51h6.22v-7.83c0-10.09-2.12-17.38-6.35-21.88-4.23-4.5-11.12-6.75-20.67-6.75-14.95,0-29.9,4.59-44.85,13.78l-8.1-19.18c7.02-4.86,15.54-8.78,25.53-11.75,10-2.97,19.59-4.46,28.77-4.46,17.65,0,30.75,4.42,39.31,13.24ZM1563.62,211.72c6.3-6.75,9.46-15.44,9.46-26.07v-7.03h-4.86c-14.05,0-24.86.63-32.42,1.89-7.57,1.26-12.97,3.38-16.21,6.35s-4.86,7.25-4.86,12.83c0,6.31,2.3,11.57,6.89,15.8,4.59,4.23,10.49,6.35,17.7,6.35,9.9,0,18.01-3.38,24.31-10.13Z"/>
  <path class="st0" d="M1660.88,49.49v28.37h-31.34v-28.37h31.34ZM1631.43,108.38h27.29v131.84h-27.29V108.38Z"/>
  <g>
    <path class="st1" d="M122.33,166.64c.07.46.73.46.81,0,1.24-7.22,5.02-24.46,17.33-37.12,13.09-13.47,28.43-17.43,35.77-18.67.46-.08.46-.74,0-.81-7.21-1.2-21.84-4.95-34.69-17.55-12.39-12.14-16.63-30.04-18.14-37.73-.13-.68-1.11-.66-1.21.02-1.26,7.83-6.18,26.46-19.38,38.94-12.53,11.84-25.77,15.4-33.04,16.4-.47.06-.47.74,0,.81,7.3,1.17,21.07,4.72,33.39,16.28,14.07,13.19,18.01,32.02,19.18,39.42Z"/>
    <path class="st1" d="M62.08,91.44c.05.31.5.31.55,0,.84-4.88,3.4-16.55,11.72-25.12,8.86-9.11,19.24-11.79,24.2-12.63.31-.05.31-.5,0-.55-4.88-.81-14.78-3.35-23.47-11.87-8.38-8.21-11.25-20.33-12.28-25.53-.09-.46-.75-.45-.82.02-.85,5.3-4.18,17.9-13.11,26.35-8.48,8.01-17.43,10.42-22.36,11.1-.32.04-.32.5,0,.55,4.94.79,14.26,3.2,22.59,11.01,9.52,8.93,12.18,21.67,12.98,26.67Z"/>
    <path class="st1" d="M62.24,177.98c.03.2.32.2.35,0,.54-3.12,2.17-10.58,7.5-16.06,5.66-5.83,12.3-7.54,15.47-8.08.2-.03.2-.32,0-.35-3.12-.52-9.45-2.14-15.01-7.59-5.36-5.25-7.19-13-7.85-16.32-.06-.29-.48-.28-.53,0-.54,3.39-2.67,11.45-8.39,16.85-5.42,5.12-11.15,6.66-14.29,7.1-.2.03-.21.32,0,.35,3.16.51,9.12,2.04,14.45,7.04,6.09,5.71,7.79,13.85,8.3,17.05Z"/>
  </g>
  <path class="st0" d="M283.87,238.03l-40.52-71.99c-.48-.85-.01-1.91.93-2.17,11.35-3.09,19.52-8.21,24.51-15.38,5.27-7.56,7.9-17.99,7.9-31.29v-21.46c0-9.27-1.57-16.87-4.71-22.82-3.14-5.94-7.17-10.62-12.1-14.05-4.93-3.43-10.59-5.79-16.98-7.1-6.39-1.31-12.72-1.97-19-1.97h-80.98c-.59,0-1.05.35-1.29.84,2.95,15.74,9.69,29.15,19.2,38.08,13.1,12.29,28.45,15.7,35.91,18.44,4.58,1.69,5.53,1.51,5.53,2.91q0,1.77-5.43,3.47c-5.64,1.76-20.38,2.66-35.63,15.48-17.74,14.91-20.31,36.49-20.31,42.61,0,13.62.36,67.81.3,67.12,0,.82.66,1.48,1.46,1.48h31.69c.81,0,1.46-.65,1.46-1.46v-67.33c0-2.89,2.37-5.26,5.26-5.26h12.83c2.32,0,4.45,1.27,5.56,3.3l38.13,69.98c.26.47.75.77,1.29.77h43.68c1.13,0,1.83-1.21,1.28-2.19Z"/>
</svg>